<svg xmlns="http://www.w3.org/2000/svg" viewBox="0 0 1000 1000" preserveAspectRatio="xMidYMid slice">
  <defs>
    <linearGradient id="grad1" x1="0%" y1="0%" x2="100%" y2="100%">
      <stop offset="0%" style="stop-color:#E6F3FF">
        <animate attributeName="stop-color" values="#E6F3FF; #B3D9FF; #E6F3FF" dur="20s" repeatCount="indefinite" />
      </stop>
      <stop offset="50%" style="stop-color:#D6EFFF">
        <animate attributeName="stop-color" values="#D6EFFF; #B0D5FF; #D6EFFF" dur="20s" repeatCount="indefinite" />
      </stop>
      <stop offset="100%" style="stop-color:#F0F7FF">
        <animate attributeName="stop-color" values="#F0F7FF; #E0F0FF; #F0F7FF" dur="20s" repeatCount="indefinite" />
      </stop>
    </linearGradient>
    <linearGradient id="grad2" x1="100%" y1="0%" x2="0%" y2="100%">
      <stop offset="0%" style="stop-color:#B3D9FF">
        <animate attributeName="stop-color" values="#B3D9FF; #80BFFF; #B3D9FF" dur="15s" repeatCount="indefinite" />
      </stop>
      <stop offset="50%" style="stop-color:#D6EFFF">
        <animate attributeName="stop-color" values="#D6EFFF; #A5CFFF; #D6EFFF" dur="15s" repeatCount="indefinite" />
      </stop>
      <stop offset="100%" style="stop-color:#F0F7FF">
        <animate attributeName="stop-color" values="#F0F7FF; #E0F0FF; #F0F7FF" dur="15s" repeatCount="indefinite" />
      </stop>
    </linearGradient>
    <filter id="noise" x="0%" y="0%" width="100%" height="100%">
      <feTurbulence type="fractalNoise" baseFrequency="0.7" numOctaves="3" stitchTiles="stitch" result="noise"/>
      <feColorMatrix in="noise" type="saturate" values="0" result="desaturatedNoise"/>
      <feBlend in="SourceGraphic" in2="desaturatedNoise" mode="overlay" result="blend"/>
    </filter>
  </defs>
  
  <rect width="100%" height="100%" fill="url(#grad1)"/>
  <rect width="100%" height="100%" fill="url(#grad2)" opacity="0.7"/>
  
  <g filter="url(#noise)" opacity="0.03">
    <rect width="100%" height="100%" />
  </g>
  
  <!-- Icons -->
  <g fill="#F0F7FF" opacity="0.2">
    <!-- Microphone -->
    <path d="M100 100 m-12-18 h24 v36 a12 12 0 0 1 -24 0 v-36 M76 118 h48 a6 6 0 0 1 0 12 h-18 v12 h-12 v-12 h-18 a6 6 0 0 1 0 -12" />
    
    <!-- Headset -->
    <path d="M900 150 m-30-22 q-22 0 -22 22 v22 h9 v-18 q0 -18 13 -18 h4 v-8 h-4 M930 150 q22 0 22 22 v22 h-9 v-18 q0 -18 -13 -18 h-4 v-8 h4 M909 141 h18 q18 0 18 18 v36 h-54 v-36 q0 -18 18 -18" />
    
    <!-- Speech Bubble -->
    <path d="M150 850 m-22-30 h44 v36 h-26 l-9 9 v-9 h-9 v-36" />
    
    <!-- Laptop -->
    <path d="M850 900 m-27-22 h54 v36 h-54 v-36 M814 914 h72 v9 h-72 v-9" />
    
    <!-- Handshake -->
    <path d="M500 950 m-30-7 q13 0 13 13 t13 13 t13 -13 t13 -13" stroke="#F0F7FF" stroke-width="4" fill="none" />
    
    <!-- Checkmark -->
    <path d="M950 500 m-22-7 l15 15 l30 -30" stroke="#F0F7FF" stroke-width="8" fill="none" />
    
    <!-- Question Mark -->
    <path d="M50 500 m-15-22 q0 -22 22 -22 t22 22 q0 9 -4 13 t-9 9 t-9 9 v13 M50 531 v9" stroke="#F0F7FF" stroke-width="8" fill="none" />
    
    <!-- Calendar -->
    <path d="M180 300 m-22-22 h44 v44 h-44 v-44 M158 285 h88 v15 h-88 v-15 M180 307 h7 v7 h-7 v-7 M195 307 h7 v7 h-7 v-7 M210 307 h7 v7 h-7 v-7 M180 322 h7 v7 h-7 v-7 M195 322 h7 v7 h-7 v-7 M210 322 h7 v7 h-7 v-7" />
    
    <!-- Clock -->
    <circle cx="820" cy="180" r="22" fill="none" stroke="#F0F7FF" stroke-width="4"/>
    <path d="M820 180 v-15 M820 180 l10 10" stroke="#F0F7FF" stroke-width="4"/>
    
    <!-- Document -->
    <path d="M700 120 m-18-22 h36 v44 h-36 v-44 M685 105 h27 M685 113 h27 M685 121 h27" />
    
    <!-- Briefcase -->
    <path d="M600 900 m-22-18 h44 v36 h-44 v-36 M578 888 h44 v-6 h-44 v6" />
    
    <!-- Light Bulb -->
    <path d="M100 700 m0-22 a22 22 0 1 1 0 44 a22 22 0 1 1 0 -44 M92 722 v15 h15 v-15" />
    
    <!-- Graph -->
    <path d="M900 700 m-22-22 v44 h44 M880 707 l12-12 l12 12 l12-24" stroke="#F0F7FF" stroke-width="4" fill="none" />
  </g>
</svg>
